<?xml version="1.0" encoding="utf-8"?>
<!-- Generator: Adobe Illustrator 16.0.0, SVG Export Plug-In . SVG Version: 6.00 Build 0)  -->
<!DOCTYPE svg PUBLIC "-//W3C//DTD SVG 1.1//EN" "http://www.w3.org/Graphics/SVG/1.1/DTD/svg11.dtd">
<svg version="1.1" id="Layer_2" xmlns="http://www.w3.org/2000/svg" xmlns:xlink="http://www.w3.org/1999/xlink" x="0px" y="0px"
	 width="453.265px" height="457.774px" viewBox="0 0 453.265 457.774" enable-background="new 0 0 453.265 457.774"
	 xml:space="preserve">
<path fill="#A7A7A7" d="M357.452,319.532l-23.5-0.5l-3.227-3.227c30.004-33.523,48.256-77.784,48.256-126.314
	C378.981,84.838,294.144,0,189.49,0C84.838,0,0,84.838,0,189.491c0,104.652,84.838,189.49,189.49,189.49
	c45.721,0,87.657-16.193,120.393-43.156l3.638,3.638l1.5,22.5l95.813,95.812l42.432-42.43L357.452,319.532z M189.49,322.135
	c-73.256,0-132.643-59.387-132.643-132.644S116.234,56.848,189.49,56.848c73.258,0,132.644,59.387,132.644,132.644
	S262.748,322.135,189.49,322.135z"/>
</svg>
