<?xml version="1.0" encoding="utf-8"?>
<!-- Generator: Adobe Illustrator 16.0.0, SVG Export Plug-In . SVG Version: 6.00 Build 0)  -->
<!DOCTYPE svg PUBLIC "-//W3C//DTD SVG 1.1//EN" "http://www.w3.org/Graphics/SVG/1.1/DTD/svg11.dtd">
<svg version="1.1" id="Layer_1" xmlns="http://www.w3.org/2000/svg" xmlns:xlink="http://www.w3.org/1999/xlink" x="0px" y="0px"
	 width="635.119px" height="409.75px" viewBox="0 0 635.119 409.75" enable-background="new 0 0 635.119 409.75"
	 xml:space="preserve">
<g>
	<path fill-rule="evenodd" clip-rule="evenodd" fill="#FFFFFF" d="M424.338,41.891c0,75.764,0,151.179,0,226.92
		c-15.875,0-31.276,0-47.325,0c0-75.58,0-151.117,0-226.981c-15.224,0-29.803,0-45.011,0c0,75.677,0,151.224,0,227.04
		c-8.563,0-16.507,0-24.742,0c-3.305-10.91-6.749-21.936-9.899-33.044c-0.487-1.715,0.033-3.935,0.667-5.715
		c5.663-15.914,11.458-31.781,17.208-47.665c0.497-1.372,0.952-2.759,0.718-5.016c-2.873,2.011-5.844,3.896-8.595,6.062
		c-4.315,3.399-8.333,7.193-12.778,10.402c-1.941,1.402-5.371,3.086-6.793,2.284c-1.894-1.068-3.536-4.462-3.483-6.817
		c0.57-25.461,1.757-50.91,2.214-76.371c0.242-13.434,3.312-26.218,6.322-39.148c1.133-4.868,0.184-10.219-0.556-15.456
		c-10.94,8.505-16.531,19.521-18.478,32.515c0.557-0.026,1.113-0.052,1.669-0.078c0.867,3.725,2.692,7.513,2.45,11.165
		c-1.953,29.518-2.45,59.196-9.493,88.199c-1.021,4.208-2.184,6.608-6.692,6.574c-1.101-0.008-2.205,0.443-3.228,0.666
		c0.733,8.369,1.789,16.451,1.99,24.554c0.089,3.581-0.797,7.633-2.548,10.734c-6.523,11.56-13.562,22.833-20.5,34.156
		c-0.591,0.965-1.843,2.094-2.838,2.143c-4.615,0.229-9.248,0.102-14.063,0.102c-9.935-53.566-19.778-106.641-29.621-159.716
		c-0.287,0.03-0.574,0.06-0.86,0.089c0,52.913,0,105.826,0,159.195c-16.048,0-31.726,0-47.767,0c0-15.988,0-31.931,0-47.873
		c-0.246-0.035-0.491-0.071-0.737-0.106c-0.64,2.528-1.193,5.081-1.931,7.579c-7.036,23.816-28.288,40.828-54.957,43.552
		c-18.143,1.855-36.027,0.74-52.609-7.838c-20.793-10.754-31.735-28.005-31.836-51.453C0.02,162.887,0.606,113.221,0.005,63.569
		C-0.359,33.499,17.963,8.58,51.579,2.123c18.312-3.517,36.486-3.072,53.934,4.448c19.454,8.384,30.574,22.577,36.638,45.739
		c0-8.044,0-16.088,0-24.133c0-7.952,0-15.904,0-24.091c21.625,0,42.725,0,64.327,0c9.979,52.294,19.952,104.563,29.924,156.831
		c0.305,0.045,0.611,0.089,0.917,0.134c1.242-6.079,2.539-12.146,3.715-18.236C249.717,97.885,258.425,52.96,266.945,8
		c0.646-3.413,1.93-4.223,5.154-4.22c79.822,0.076,159.645,0.058,239.467,0.07c1.302,0,2.603,0.16,4.267,0.27
		c11.185,64.996,22.34,129.823,33.497,194.65c0.295,0.017,0.591,0.033,0.886,0.05c11.406-64.824,22.813-129.649,34.26-194.699
		c16.869,0,33.467,0,50.644,0c-2.499,11.002-4.92,21.796-7.404,32.575c-17.487,75.871-35.03,151.729-52.362,227.635
		c-0.918,4.02-2.477,4.945-6.256,4.889c-13.496-0.205-26.996-0.08-40.494-0.08c-1.629,0-3.259,0-5.084,0
		c-4.508-20.248-8.928-40.031-13.313-59.82c-12.059-54.417-24.125-108.833-36.099-163.269c-0.714-3.248-1.804-4.718-5.501-4.647
		c-13.161,0.25-26.329,0.087-39.496,0.113C427.665,41.521,426.219,41.737,424.338,41.891z M93.989,80.879
		c0-6.47,0.007-12.267-0.001-18.064c-0.018-13.55-9.741-24.555-21.737-24.612c-13.5-0.064-23.578,10.287-23.583,24.31
		c-0.016,49.312-0.016,98.625,0,147.937c0.004,13.947,9.611,23.847,23.217,24.017c12.218,0.151,22.063-10.577,22.102-24.104
		c0.018-5.928,0.003-11.855,0.003-18.318c16.426,0,32.14,0,47.906,0c0-37.299,0-74.047,0-111.164
		C126.049,80.879,110.453,80.879,93.989,80.879z"/>
	<path fill-rule="evenodd" clip-rule="evenodd" fill="#FFFFFF" d="M628.746,409.75c-136.608,0-272.825,0-409.323,0
		c0-45.453,0-90.701,0-136.365c4.579,0,9.315,0,14.726,0c-3.125,6.926-6.233,13.814-9.792,21.705
		c12.776-4.623,24.347-8.861,35.957-12.986c7.798-2.773,15.622-5.484,23.502-8.012c2.319-0.744,4.87-1.074,7.314-1.074
		c110.947-0.051,221.894-0.045,332.84-0.045c1.479,0,2.956,0,4.776,0C628.746,318.629,628.746,363.996,628.746,409.75z
		 M448.355,293.092c-7.305,0-14.271-0.154-21.217,0.164c-1.05,0.047-2.621,2.158-2.899,3.529
		c-2.533,12.486-4.791,25.031-7.224,37.539c-0.836,4.295-1.937,8.539-2.915,12.805c-0.246-0.068-0.49-0.137-0.734-0.205
		c-3.432-17.844-6.861-35.688-10.271-53.42c-8.27,0-15.99,0-23.585,0c0,32.322,0,64.221,0,96.141c5.954,0,11.538,0,17.583,0
		c0-17.635,0-34.986,0-52.34c3.424,14.221,6.097,28.488,8.855,42.74c1.947,10.063,2,10.057,12.132,9.867
		c0.488-0.008,0.974-0.146,2.024-0.314c3.102-16.08,6.231-32.305,9.361-48.527c0.42,0.029,0.842,0.061,1.262,0.092
		c0,16.182,0,32.365,0,48.436c6.332,0,11.907,0,17.628,0C448.355,357.357,448.355,325.459,448.355,293.092z M594.944,350.432
		c4.086-5.602,8.164-9.852,10.627-14.891c3.592-7.352,3.34-15.475,1.686-23.418c-2.247-10.799-8.876-17.727-19.852-18.617
		c-10.689-0.867-21.506-0.189-32.463-0.189c0,32.344,0,64.342,0,96.342c5.869,0,11.297,0,17.2,0c0-13.012,0-25.758,0-38.137
		c4.132-1.703,5.505,0.412,6.729,3.393c4.343,10.576,8.789,21.111,13.383,31.58c0.609,1.387,2.236,3.188,3.498,3.277
		c5.234,0.369,10.511,0.154,16.468,0.154C606.102,375.936,600.278,362.623,594.944,350.432z M316.152,341.43
		c0,8.996-0.038,17.992,0.01,26.99c0.058,10.953,5.884,18.74,16.507,21.434c3.641,0.922,7.554,1.051,11.342,1.053
		c13.85,0.008,23.463-9.115,23.646-22.828c0.238-17.824,0.146-35.654,0.016-53.48c-0.057-7.771-3.072-14.197-9.836-18.518
		c-6.193-3.957-13.082-4.65-20.139-3.963c-13.793,1.348-21.53,10-21.545,23.82C316.145,324.436,316.151,332.932,316.152,341.43z
		 M545.089,389.771c-0.121-1.602-0.082-2.777-0.314-3.895c-5.523-26.555-11.105-53.098-16.615-79.654
		c-2.813-13.559-2.757-13.492-16.593-13.205c-2.86,0.061-3.94,0.9-4.524,3.818c-4.448,22.223-9.145,44.395-13.715,66.592
		c-1.787,8.672-3.452,17.367-5.223,26.309c5.852,0,11.135,0,16.726,0c1.171-7.266,2.317-14.389,3.483-21.633
		c5.375,0,10.473,0,15.799,0c1.214,7.33,2.396,14.457,3.592,21.668C533.572,389.771,539.028,389.771,545.089,389.771z
		 M308.438,321.57c-0.409-4.799-0.031-9.572-1.329-13.838c-3.695-12.143-17.128-18.391-31.34-15.178
		c-12.39,2.801-19.39,10.414-19.481,21.766c-0.146,18.152-0.117,36.307-0.008,54.459c0.058,9.566,5.184,17.063,14.288,20.084
		c4.301,1.43,9.07,1.969,13.633,1.998c16.878,0.109,26.806-12.469,23.246-29.15c-5.565,0-11.15,0-17.211,0
		c0,2.637,0.08,4.936-0.018,7.227c-0.184,4.303-3.525,7.875-7.355,7.988c-3.984,0.117-7.938-3.135-7.977-7.373
		c-0.168-18.65-0.185-37.303-0.016-55.951c0.04-4.445,3.648-7.168,8.096-7.002c4.032,0.15,7.019,3.113,7.244,7.365
		c0.129,2.438,0.023,4.887,0.023,7.605C296.438,321.57,302.007,321.57,308.438,321.57z M227.537,372.303c0,6.055,0,11.75,0,17.262
		c5.973,0,11.543,0,17.118,0c0-5.932,0-11.486,0-17.262C238.844,372.303,233.403,372.303,227.537,372.303z M461.343,389.553
		c6.164,0,11.733,0,17.271,0c0-5.945,0-11.5,0-17.176c-5.952,0-11.515,0-17.271,0C461.343,378.256,461.343,383.83,461.343,389.553z"
		/>
	<path fill-rule="evenodd" clip-rule="evenodd" fill="#FFFFFF" d="M572.275,336.063c0-9.695,0-18.619,0-28.24
		c5.804,1.078,12.784-3.066,16.693,2.996c4.101,6.361,3.89,14.48,0.498,21.021C586.022,338.484,578.601,335.373,572.275,336.063z"/>
	<path fill-rule="evenodd" clip-rule="evenodd" fill="#FFFFFF" d="M334.104,341.477c0-8.645-0.026-17.289,0.01-25.934
		c0.023-5.5,3.469-9.564,7.982-9.551c4.229,0.012,7.39,3.893,7.408,9.439c0.055,17.291,0.056,34.58,0,51.869
		c-0.019,5.59-3.137,9.531-7.326,9.621c-4.631,0.102-8.053-4.109-8.068-10.01C334.087,358.434,334.104,349.955,334.104,341.477z"/>
	<path fill-rule="evenodd" clip-rule="evenodd" fill="#FFFFFF" d="M521.271,352.891c-3.724,0-6.668,0-9.978,0
		c1.541-9.916,3.044-19.596,4.55-29.275c0.324,0.008,0.65,0.016,0.977,0.023C518.278,333.23,519.738,342.822,521.271,352.891z"/>
</g>
</svg>
